<svg xmlns="http://www.w3.org/2000/svg" width="21" height="21" viewBox="0 0 21 21">
    <g fill="none" fill-rule="evenodd">
        <g fill="#0D457A">
            <path d="M90.5 758c2.785 0 5.455-1.106 7.424-3.076 1.97-1.969 3.076-4.64 3.076-7.424 0-2.785-1.106-5.455-3.076-7.424-1.969-1.97-4.64-3.076-7.424-3.076-2.785 0-5.455 1.106-7.424 3.076-1.97 1.969-3.076 4.64-3.076 7.424 0 2.785 1.106 5.455 3.076 7.424 1.969 1.97 4.64 3.076 7.424 3.076zm-1.05-15.75c0-.58.47-1.05 1.05-1.05.58 0 1.05.47 1.05 1.05v7.35c0 .58-.47 1.05-1.05 1.05-.58 0-1.05-.47-1.05-1.05v-7.35zm1.05 9.45c.424 0 .807.256.97.648.163.393.072.844-.228 1.145-.3.3-.752.39-1.144.227-.392-.162-.648-.545-.648-.97 0-.58.47-1.05 1.05-1.05z" transform="translate(-80 -737)"/>
        </g>
    </g>
</svg>
