<svg xmlns="http://www.w3.org/2000/svg" width="16" height="17" viewBox="0 0 16 17">
    <g fill="none" fill-rule="evenodd">
        <g fill="#FFF">
            <g>
                <path d="M15.913 6.747c-.106-.913-.298-1.754-.545-2.56-.298-.858-.737-1.556-1.387-2.165-.65-.608-1.423-1.11-2.424-1.467C10.521.197 9.292 0 7.763 0 6.481 0 5.392.197 4.408.555c-.931.412-1.721.913-2.318 1.503C1.44 2.72.948 3.418.65 4.223.298 5.03.105 5.888.053 6.747 0 6.944 0 7.194 0 7.498v2.058c0 .304 0 .555.053.751.053.913.298 1.718.65 2.56.35.804.843 1.502 1.475 2.11.65.609 1.44 1.11 2.37 1.468.932.412 2.02.555 3.215.555.984 0 1.826-.054 2.565-.25.737-.144 1.387-.412 1.967-.662h.017c.65-.304.65-1.217.018-1.54l-.123-.071c-.527-.269-1.124-.287-1.669-.09h-.018c-.298.108-.65.197-1.088.25-.44.054-.984.054-1.687.054-.843 0-1.58-.107-2.213-.304-.597-.197-1.142-.5-1.58-.913-.44-.393-.791-.913-1.037-1.45-.245-.5-.439-1.162-.492-1.807-.053-.197-.053-.447-.053-.751.001-.304-.034-.608-.034-.966 0-.304.053-.608.053-.912 0-.305 0-.555.053-.752.053-.662.245-1.252.439-1.808.245-.554.597-1.055.984-1.45.439-.357.984-.697 1.633-.912.65-.197 1.388-.358 2.266-.358 1.088 0 1.967.108 2.67.304.684.143 1.229.447 1.686.805.439.412.79.86.983 1.414.194.608.352 1.252.44 2.004.052.411.052.751.052 1.055 0 .358 0 .698-.053 1.11 0 .447-.105.75-.245.948-.14.143-.386.25-.685.25-.298 0-.545-.108-.737-.25-.194-.197-.299-.448-.299-.805l-.002-4.222c0-.143-.053-.304-.14-.393-.106-.108-.263-.143-.404-.143H9.748c-.14 0-.246.053-.387.143-.105.108-.14.25-.14.393v.198c-.194-.25-.386-.502-.685-.662-.245-.197-.685-.25-1.23-.25-.491 0-.93.107-1.334.303-.44.198-.738.502-1.036.86-.299.411-.492.859-.65 1.36-.14.5-.194 1.109-.194 1.753 0 .609.053 1.2.194 1.719.14.555.386 1.002.685 1.36.298.411.65.662 1.036.859.439.197.896.304 1.387.304.439 0 .79 0 1.089-.108.298-.054.492-.143.684-.25.194-.108.352-.25.492-.412.106-.107.246-.25.352-.411.193.25.491.447.93.662.387.197.932.304 1.687.304.351 0 .737-.054 1.142-.198.386-.143.737-.357 1.036-.608.298-.304.596-.608.79-1.002.193-.412.298-.913.351-1.413 0-.412.053-.806.053-1.307-.035-.43-.087-.895-.087-1.235zM8.8 9.95c-.299.304-.597.447-1.036.447-.351 0-.685-.143-.931-.447-.299-.304-.44-.805-.44-1.45 0-.697.141-1.217.44-1.503.245-.304.597-.447.93-.447.44 0 .738.143 1.037.447.245.305.386.806.386 1.503.017.698-.14 1.163-.386 1.45z" transform="translate(-865 -1736) translate(865 1736)"/>
            </g>
        </g>
    </g>
</svg>
