<svg xmlns="http://www.w3.org/2000/svg" width="27" height="29" viewBox="0 0 27 29">
    <g fill="none" fill-rule="evenodd">
        <g fill="#093C71">
            <g>
                <path d="M.303 9.667c0 .64.256 1.255.711 1.708.455.453 1.073.708 1.716.708v12.084c0 1.281.512 2.51 1.422 3.417C5.062 28.49 6.297 29 7.584 29H19.72c1.287 0 2.522-.51 3.432-1.416.91-.906 1.422-2.136 1.422-3.417V12.083c.643 0 1.26-.255 1.716-.708.455-.453.71-1.068.71-1.708V7.25c0-.64-.255-1.256-.71-1.709-.455-.453-1.073-.708-1.716-.708h-4.854V2.417c0-.641-.256-1.256-.711-1.709C18.553.255 17.935 0 17.292 0H10.01C8.67 0 7.584 1.082 7.584 2.417v2.416H2.73C1.39 4.833.303 5.915.303 7.25v2.417zm21.843 14.5c0 .64-.256 1.255-.711 1.708-.455.453-1.072.708-1.716.708H7.584c-1.34 0-2.427-1.082-2.427-2.416V12.083h16.99v12.084zM10.011 2.417h7.281v2.416h-7.28V2.417zM2.731 7.25h21.842v2.417H2.73V7.25z" transform="translate(-1207 -911) translate(1207 911)"/>
                <path d="M8.798 24.167c.322 0 .63-.128.858-.354.227-.227.355-.534.355-.855v-7.25c0-.668-.543-1.208-1.213-1.208-.671 0-1.214.54-1.214 1.208v7.25c0 .321.128.628.356.855.227.226.535.354.858.354zM13.652 24.167c.322 0 .63-.128.858-.354.227-.227.355-.534.355-.855v-7.25c0-.668-.543-1.208-1.213-1.208-.671 0-1.214.54-1.214 1.208v7.25c0 .321.128.628.356.855.227.226.535.354.858.354zM18.506 24.167c.322 0 .63-.128.858-.354.227-.227.355-.534.355-.855v-7.25c0-.668-.543-1.208-1.213-1.208-.671 0-1.214.54-1.214 1.208v7.25c0 .321.128.628.356.855.227.226.535.354.858.354z" transform="translate(-1207 -911) translate(1207 911)"/>
            </g>
        </g>
    </g>
</svg>
