<svg xmlns="http://www.w3.org/2000/svg" width="14" height="14" viewBox="0 0 14 14">
    <g fill="none" fill-rule="evenodd">
        <g fill="#FFF">
            <path d="M736 1398c-3.867 0-7 3.134-7 7 0 3.867 3.133 7 7 7s7-3.133 7-7c0-3.866-3.133-7-7-7zm3.03 8.97c.294.293.294.767 0 1.06-.146.147-.338.22-.53.22s-.384-.073-.53-.22l-1.97-1.97-1.97 1.97c-.146.147-.338.22-.53.22s-.384-.073-.53-.22c-.294-.292-.294-.767 0-1.06l1.97-1.97-1.97-1.97c-.293-.292-.293-.767 0-1.06.293-.293.767-.293 1.06 0l1.97 1.97 1.97-1.97c.292-.293.767-.293 1.06 0 .293.293.293.768 0 1.06l-1.97 1.97 1.97 1.97z" transform="translate(-729.000000, -1398.000000)"/>
        </g>
    </g>
</svg>
