<svg xmlns="http://www.w3.org/2000/svg" width="27" height="29" viewBox="0 0 27 29">
    <g fill="none" fill-rule="evenodd">
        <g fill="#093C71">
            <g>
                <path d="M21.21 24.167c0 1.148-.93 2.023-2.04 2.023H4.83c-1.14 0-2.04-.906-2.04-2.023V7.854c0-1.117.93-2.024 2.04-2.024h6.45l2.61-2.627H4.83C2.25 3.203.15 5.286.15 7.854v16.313c0 2.598 2.1 4.682 4.68 4.682H19.2c2.58 0 4.68-2.084 4.68-4.682V13.2l-2.61 2.628v8.338h-.06z" transform="translate(-1024 -867) translate(1024 867)"/>
                <path d="M26.25 4.44L22.59.786C22.2.393 21.66.15 21.12.15c-.569 0-1.08.211-1.469.604l-13.5 13.594c-.36.362-.57.846-.6 1.36l-.241 3.895c-.03.605.18 1.209.6 1.631.39.393.93.604 1.47.604h.119l3.901-.24c.51-.031.99-.242 1.35-.605L26.22 7.432c.39-.393.6-.937.6-1.48.03-.575-.18-1.119-.57-1.512zm-8.61 2.085l2.91 2.93-6.75 6.766-2.91-2.93 6.75-6.766zm-6.6 12.476l-3.09.181.18-3.112.87-.875 2.91 2.93-.87.876zM22.38 7.552l-2.88-2.9 1.62-1.631 2.91 2.93-1.65 1.601z" transform="translate(-1024 -867) translate(1024 867)"/>
            </g>
        </g>
    </g>
</svg>
