<svg xmlns="http://www.w3.org/2000/svg" width="19" height="19" viewBox="0 0 19 19">
    <g fill="none" fill-rule="evenodd">
        <g fill="#093C71">
            <g>
                <g>
                    <path d="M9.5 18.975c-2.946-.002-5.723-1.373-7.515-3.71C.193 12.927-.41 9.889.354 7.044 1.117 4.199 3.16 1.87 5.882.745c2.722-1.126 5.812-.923 8.362.552 2.55 1.473 4.271 4.05 4.654 6.97.384 2.92-.613 5.853-2.696 7.935-1.774 1.783-4.187 2.78-6.702 2.773zm0-17.686c-2.743-.001-5.305 1.367-6.83 3.647-1.524 2.28-1.81 5.172-.76 7.706 1.05 2.534 3.296 4.377 5.986 4.912 2.69.535 5.47-.31 7.409-2.25 1.539-1.539 2.403-3.627 2.403-5.805 0-2.177-.864-4.265-2.404-5.805C13.765 2.154 11.677 1.29 9.5 1.29z" transform="translate(-386.000000, -1596.000000) translate(386.000000, 1596.000000)"/>
                    <path d="M5.89 5.891c.246-.246.693-.2.892 0l6.325 6.324c.246.247.246.647 0 .893-.247.247-.693.2-.893 0L5.889 6.784c-.246-.246-.246-.647 0-.893z" transform="translate(-386.000000, -1596.000000) translate(386.000000, 1596.000000)"/>
                    <path d="M5.89 12.215l6.324-6.324c.246-.246.693-.2.893 0 .246.246.246.647 0 .893l-6.325 6.324c-.246.247-.693.2-.893 0-.246-.246-.246-.646 0-.893z" transform="translate(-386.000000, -1596.000000) translate(386.000000, 1596.000000)"/>
                </g>
            </g>
        </g>
    </g>
</svg>
