<svg xmlns="http://www.w3.org/2000/svg" width="32" height="27" viewBox="0 0 32 27">
    <g fill="none" fill-rule="evenodd">
        <g fill="#E60000">
            <g>
                <path d="M7.356.001C6.81.06 6.397.533 6.4 1.096v4.743H1.067c-.038-.002-.074-.002-.111 0C.41 5.897-.003 6.37 0 6.933v12.405c0 .604.478 1.095 1.067 1.095H6.4v5.472C6.4 26.51 6.878 27 7.467 27h1.066c.286.004.286-2.193 0-2.19v-8.756h14.934v8.757h.177c-.286-.004-.286 2.193 0 2.189h.89c.588 0 1.066-.49 1.066-1.095v-5.472h5.333c.59 0 1.067-.49 1.067-1.095V6.933c0-.604-.478-1.094-1.067-1.094H25.6V1.096C25.6.49 25.122 0 24.533 0H7.356zm1.177 2.19h14.934v3.648H8.533V2.19zm-6.4 5.837h27.734v10.216H25.6V14.96c0-.604-.478-1.095-1.067-1.095H7.467c-.59 0-1.067.49-1.067 1.095v3.284H2.133V8.028zm8.04 9.846c-.19.217-.288.5-.273.791.014.291.142.563.352.757.21.195.487.297.77.28h9.956c.286.005.561-.109.764-.314.204-.205.318-.486.318-.78 0-.293-.114-.574-.318-.78-.203-.204-.478-.318-.764-.314h-9.956c-.037-.002-.073-.002-.11 0-.284.015-.55.145-.738.36zm0 3.649c-.19.217-.288.5-.273.79.014.292.142.564.352.758.21.195.487.296.77.28h9.956c.286.005.561-.11.764-.315.204-.205.318-.486.318-.78 0-.293-.114-.573-.318-.779-.203-.205-.478-.319-.764-.315H10.912c-.284.016-.55.146-.738.36z" transform="translate(-1171 -770) translate(1171 770)"/>
                <path d="M7.111 24.3H24.889V27H7.111z" transform="translate(-1171 -770) translate(1171 770)"/>
            </g>
        </g>
    </g>
</svg>
