<svg xmlns="http://www.w3.org/2000/svg" width="20" height="23" viewBox="0 0 20 23">
    <g fill="none" fill-rule="evenodd">
        <g fill="#093C71">
            <g>
                <g>
                    <path d="M25.208 6h-2.432c-.459 0-.81.352-.81.81v8.487c-1.703.757-2.891 2.405-3 4.378-.028.054-.028.082-.054.135l-1.891 7.163c-.054.243 0 .513.135.703.135.189.378.324.648.324h12.375c.243 0 .487-.108.648-.324.163-.217.217-.46.136-.703L29.07 19.81c0-.053-.027-.107-.054-.135-.081-1.946-1.297-3.62-3-4.378l.002-8.486c0-.433-.352-.811-.811-.811zm-1.621 1.622h.81v7.27c-.135 0-.27-.028-.405-.028s-.27 0-.405.028v-7.27zm5.54 18.756H27.72l-.486-3.919-1.622.19.46 3.73h-1.27v-3.54h-1.621v3.54h-1.27l.459-3.73-1.621-.19-.487 3.92h-1.405l1.459-5.541h7.323l1.486 5.54zm-1.785-7.162h-6.7c.324-1.54 1.703-2.703 3.35-2.703 1.649 0 3.026 1.163 3.35 2.703z" transform="translate(-744 -688) translate(601 681) translate(131) rotate(35 24 17)"/>
                </g>
            </g>
        </g>
    </g>
</svg>
