<svg xmlns="http://www.w3.org/2000/svg" width="17" height="17" viewBox="0 0 17 17">
    <g fill="none" fill-rule="evenodd">
        <g fill="#FFF">
            <path d="M1342.704 344.324l-5.124-5.125c.788-1.034 1.232-2.365 1.232-3.794 0-3.548-2.858-6.405-6.406-6.405-3.547 0-6.406 2.858-6.406 6.406 0 3.548 2.858 6.405 6.405 6.405 1.43 0 2.71-.443 3.795-1.231l5.125 5.124c.196.197.443.296.69.296.246 0 .492-.099.69-.296.394-.394.394-.985-.001-1.38zm-10.298-4.483c-2.464 0-4.434-1.971-4.434-4.435 0-2.464 1.97-4.434 4.434-4.434 2.464 0 4.435 1.97 4.435 4.434 0 2.463-1.972 4.435-4.435 4.435z" transform="translate(-1326 -329)"/>
        </g>
    </g>
</svg>
