<svg xmlns="http://www.w3.org/2000/svg" width="13" height="18" viewBox="0 0 13 18">
    <g fill="none" fill-rule="evenodd">
        <g fill="#FFF">
            <path d="M428.5 1736c1.791 0 3.416.714 4.604 1.857 1.166 1.164 1.896 2.755 1.896 4.51 0 3.796-2.459 7.123-4.729 10.184-.209.286-.416.572-.688.919-.125.183-.29.306-.478.408-.189.081-.397.122-.605.122-.209 0-.416-.04-.604-.143-.187-.102-.354-.224-.479-.408-.271-.367-.479-.633-.687-.918-2.251-3.041-4.73-6.368-4.73-10.164 0-1.754.729-3.346 1.896-4.51 1.188-1.143 2.813-1.857 4.604-1.857zm0 3.368c.854 0 1.604.326 2.166.877.563.53.896 1.286.896 2.123 0 .836-.333 1.57-.896 2.122-.562.55-1.312.877-2.166.877-.854 0-1.604-.326-2.167-.877-.562-.551-.896-1.286-.896-2.122 0-.837.334-1.572.896-2.123.563-.55 1.333-.877 2.167-.877z" transform="translate(-422 -1736)"/>
        </g>
    </g>
</svg>
