<svg xmlns="http://www.w3.org/2000/svg" width="29" height="25" viewBox="0 0 29 25">
    <g fill="none" fill-rule="evenodd">
        <g fill="#FFF">
            <g>
                <path d="M11.388 19.196c0-.565-.211-1.13-.664-1.547l-2.99-2.946 10.995-.001c1.239 0 2.205-.982 2.205-2.173 0-1.19-.997-2.173-2.205-2.173l-10.995.001 2.99-2.946c.875-.862.875-2.232 0-3.094-.876-.863-2.266-.863-3.141 0L.816 10.953c-.876.862-.876 2.232 0 3.094l6.796 6.697c.876.862 2.266.862 3.142 0 .392-.447.634-1.012.634-1.548z" transform="translate(-1331 -37) matrix(-1 0 0 1 1360 37)"/>
                <path d="M18.458 2.263c0 1.22.997 2.172 2.205 2.172h3.746v16.072l-3.747-.001c-1.239 0-2.205.982-2.205 2.172 0 1.191.997 2.173 2.205 2.173h5.982c1.239 0 2.205-.982 2.205-2.173V2.262c0-1.22-.997-2.172-2.205-2.172h-5.982c-1.238 0-2.204.982-2.204 2.172z" transform="translate(-1331 -37) matrix(-1 0 0 1 1360 37)"/>
            </g>
        </g>
    </g>
</svg>
