<svg xmlns="http://www.w3.org/2000/svg" width="26" height="26" viewBox="0 0 26 26">
    <g fill="none" fill-rule="evenodd">
        <g fill="#FFF">
            <g>
                <path d="M27 6c-7.172 0-13 5.831-13 13 0 7.172 5.831 13 13 13 7.172 0 13-5.831 13-13 .002-7.172-5.829-13-13-13zm.268 12.088c2.99.873 3.618 2.573 3.618 3.845 0 1.812-1.253 3.324-2.933 3.75v1.162c0 .524-.426.95-.95.95-.525 0-.952-.426-.952-.95v-1.162c-1.679-.426-2.932-1.94-2.932-3.75 0-.525.426-.951.95-.951.525 0 .951.426.951.95 0 1.093.89 1.982 1.982 1.982 1.093 0 1.982-.889 1.982-1.981 0-.337 0-1.364-2.247-2.019-2.99-.873-3.616-2.573-3.616-3.845 0-1.812 1.251-3.324 2.933-3.75v-1.162c0-.524.426-.95.95-.95.525 0 .951.426.951.95v1.162c1.68.426 2.933 1.94 2.933 3.75 0 .525-.426.951-.95.951-.525 0-.952-.426-.952-.95 0-1.093-.889-1.982-1.981-1.982-1.093 0-1.982.889-1.982 1.981-.003.335-.003 1.361 2.245 2.019z" transform="translate(-744.000000, -1329.000000) translate(730.000000, 1323.000000)"/>
            </g>
        </g>
    </g>
</svg>
