<svg xmlns="http://www.w3.org/2000/svg" width="21" height="21" viewBox="0 0 21 21">
    <g fill="none" fill-rule="evenodd">
        <g>
            <g>
                <path fill="#979797" d="M10.5 21c2.785 0 5.455-1.106 7.424-3.076C19.894 15.955 21 13.284 21 10.5c0-2.785-1.106-5.455-3.076-7.424C15.955 1.106 13.284 0 10.5 0 7.715 0 5.045 1.106 3.076 3.076 1.106 5.045 0 7.716 0 10.5c0 2.785 1.106 5.455 3.076 7.424C5.045 19.894 7.716 21 10.5 21z" transform="translate(-486 -3555) translate(486 3555)"/>
                <g fill="#FFF">
                    <path d="M8.79 3.325C8.487 1.721 7.04.408 5.273.132c-1.302-.22-2.604.102-3.585.86C.692 1.75.13 2.859.13 4.025c0 .555.498.992 1.093.992.61 0 1.093-.437 1.093-.992 0-.583.29-1.137.771-1.516.499-.38 1.142-.525 1.8-.423.852.131 1.59.802 1.736 1.575.225 1.123-.579 1.984-1.463 2.246-1.06.306-1.768 1.21-1.768 2.26v1.269c0 .554.499.992 1.093.992.611 0 1.093-.438 1.093-.992v-1.27c0-.174.112-.32.257-.364C7.94 7.19 9.177 5.308 8.791 3.325zM4.5 11.404c-.772 0-1.382.569-1.382 1.254 0 .7.626 1.255 1.382 1.255.772 0 1.382-.569 1.382-1.255.016-.685-.61-1.254-1.382-1.254z" transform="translate(-486 -3555) translate(486 3555) translate(6 4)"/>
                </g>
            </g>
        </g>
    </g>
</svg>
