<svg xmlns="http://www.w3.org/2000/svg" width="13" height="19" viewBox="0 0 13 19">
    <g fill="none" fill-rule="evenodd">
        <g fill="#FFF">
            <g>
                <path d="M12.165 18.773c.582.152 1.145.227 1.682.227 1.317 0 2.475-.453 3.355-1.333l1.308-1.31c.653-.653.653-1.717 0-2.37l-1.988-1.989c-.34-.34-.807-.52-1.29-.487-.481.03-.925.267-1.219.648l-1.29 1.672c-.938-.504-1.814-1.16-2.606-1.953-.789-.79-1.442-1.661-1.944-2.594l1.675-1.293c.38-.295.617-.739.648-1.22.03-.48-.147-.95-.488-1.291L8.02 3.49C7.704 3.174 7.284 3 6.836 3c-.448 0-.868.175-1.185.49l-1.04 1.042c-.107.09-.197.172-.28.255-2.424 2.426-1.47 6.768 2.32 10.56 1.73 1.732 3.688 2.948 5.514 3.426z" transform="translate(-692 -1735) translate(688 1734) rotate(24 11 11)"/>
            </g>
        </g>
    </g>
</svg>
