<svg xmlns="http://www.w3.org/2000/svg" width="34" height="21" viewBox="0 0 34 21">
    <g fill="none" fill-rule="evenodd">
        <g fill="#093C71">
            <g>
                <path d="M33.646 9.87C30.388 3.78 24.013 0 17 0 9.917 0 3.542 3.78.354 9.87L0 10.5l.354.63C3.612 17.22 9.987 21 17 21c7.013 0 13.388-3.78 16.646-9.8l.354-.7-.354-.63zM17 17.85c-4.109 0-7.438-3.29-7.438-7.35S12.893 3.15 17 3.15c4.109 0 7.438 3.29 7.438 7.35s-3.33 7.35-7.438 7.35zM3.187 10.5c1.558-2.59 3.755-4.62 6.376-5.95-1.347 1.61-2.126 3.71-2.126 5.95s.78 4.27 2.125 5.95c-2.62-1.33-4.817-3.36-6.374-5.95zm21.25 5.95c1.347-1.61 2.125-3.71 2.125-5.95s-.778-4.27-2.125-5.95c2.62 1.33 4.818 3.36 6.375 5.95-1.557 2.59-3.754 4.62-6.375 5.95z" transform="translate(-1251 -4369) translate(1251 4369)"/>
                <path d="M19.833 10.5C18.276 10.5 17 9.24 17 7.7c0-.77.354-1.54.85-2.03-.283-.07-.566-.07-.85-.07-2.763 0-4.958 2.17-4.958 4.9 0 2.73 2.195 4.9 4.958 4.9 2.763 0 4.958-2.17 4.958-4.9 0-.28 0-.56-.07-.84-.497.49-1.276.84-2.055.84z" transform="translate(-1251 -4369) translate(1251 4369)"/>
            </g>
        </g>
    </g>
</svg>
